<svg id="_x31__px" height="512" viewBox="0 0 24 24" width="512" xmlns="http://www.w3.org/2000/svg"><path d="m20.5 16h-13c-.238 0-.443-.168-.49-.402l-2-10c-.03-.147.009-.299.103-.415.095-.116.237-.183.387-.183h17c.15 0 .292.067.387.183s.133.268.104.415l-2 10c-.048.234-.253.402-.491.402zm-12.59-1h12.18l1.8-9h-15.78z"/><path d="m7.5 16c-.233 0-.442-.164-.49-.402l-2.479-12.394c-.14-.699-.759-1.206-1.471-1.206h-.001l-1.559.002c-.276 0-.5-.224-.5-.5s.223-.5.5-.5l1.558-.002h.002c1.188 0 2.219.845 2.452 2.01l2.478 12.394c.054.271-.122.534-.392.588-.033.007-.066.01-.098.01z"/><path d="m22.5 18h-17c-.827 0-1.5-.673-1.5-1.5s.673-1.5 1.5-1.5h2c.276 0 .5.224.5.5s-.224.5-.5.5h-2c-.276 0-.5.224-.5.5s.224.5.5.5h17c.276 0 .5.224.5.5s-.224.5-.5.5z"/><path d="m9 23c-1.103 0-2-.897-2-2s.897-2 2-2 2 .897 2 2-.897 2-2 2zm0-3c-.551 0-1 .449-1 1s.449 1 1 1 1-.449 1-1-.449-1-1-1z"/><path d="m18 23c-1.103 0-2-.897-2-2s.897-2 2-2 2 .897 2 2-.897 2-2 2zm0-3c-.551 0-1 .449-1 1s.449 1 1 1 1-.449 1-1-.449-1-1-1z"/></svg>